<?xml version="1.0" encoding="UTF-8" standalone="no"?>
<!-- Created with Inkscape (http://www.inkscape.org/) -->

<svg
   width="207.90001mm"
   height="194.535mm"
   viewBox="0 0 69.300003 65.500002"
   version="1.1"
   id="svg1"
   inkscape:version="1.4.2 (ebf0e940d0, 2025-05-08)"
   sodipodi:docname="logo.monochrome.svg"
   xmlns:inkscape="http://www.inkscape.org/namespaces/inkscape"
   xmlns:sodipodi="http://sodipodi.sourceforge.net/DTD/sodipodi-0.dtd"
   xmlns="http://www.w3.org/2000/svg"
   xmlns:svg="http://www.w3.org/2000/svg">
  <sodipodi:namedview
     id="namedview1"
     pagecolor="#ffffff"
     bordercolor="#000000"
     borderopacity="0.25"
     inkscape:showpageshadow="2"
     inkscape:pageopacity="0.0"
     inkscape:pagecheckerboard="0"
     inkscape:deskcolor="#d1d1d1"
     inkscape:document-units="mm"
     inkscape:zoom="0.91846942"
     inkscape:cx="238.44017"
     inkscape:cy="151.33873"
     inkscape:window-width="2560"
     inkscape:window-height="1403"
     inkscape:window-x="2560"
     inkscape:window-y="0"
     inkscape:window-maximized="1"
     inkscape:current-layer="layer1" />
  <defs
     id="defs1">
    <radialGradient
       id="rg-balloon-body"
       r="30"
       cx="38"
       cy="44"
       fx="38"
       fy="44"
       gradientUnits="userSpaceOnUse"
       gradientTransform="matrix(0.05363159,0,0,0.05236825,36.265831,29.77549)">
      <stop
         offset="0"
         stop-color="#666666"
         id="stop1" />
      <stop
         offset="1"
         stop-color="#333333"
         id="stop2" />
    </radialGradient>
    <radialGradient
       id="rg-balloon-shadow"
       r="30"
       cx="38"
       cy="44"
       fx="38"
       fy="44"
       gradientUnits="userSpaceOnUse">
      <stop
         offset="0"
         stop-opacity="0.2"
         stop-color="#cccccc"
         id="stop3" />
      <stop
         offset="1"
         stop-opacity="1"
         stop-color="#666666"
         id="stop4" />
    </radialGradient>
    <radialGradient
       id="rg-balloon-reflection"
       r="15"
       fy="44"
       fx="38"
       cy="44"
       cx="38"
       gradientUnits="userSpaceOnUse">
      <stop
         offset="0"
         stop-opacity="0.75"
         stop-color="#eeeeee"
         id="stop5" />
      <stop
         offset="1"
         stop-opacity="0.05"
         stop-color="#cccccc"
         id="stop6" />
    </radialGradient>
  </defs>
  <g
     inkscape:label="Layer 1"
     inkscape:groupmode="layer"
     id="layer1"
     transform="translate(-0.35500158,-34.5)">
    <path
       id="hill-left"
       d="M 70,92 C 70,96 66,100 62,100 H 8 C 4,100 0,98 0,92 V 70 C 26,52 25,85 70,85 Z"
       stroke="#000000"
       stroke-width="1"
       fill="#666666"
       style="stroke:none" />
    <path
       id="hill-right"
       d="M 70,92 C 70,96 66,100 62,100 H 8 C 4,100 0,98 0,92 41,92 42,65 70,77 Z"
       stroke="#000000"
       stroke-width="1"
       fill="#999999"
       style="stroke:none" />
    <path
       id="balloon-body"
       d="M 43.104602,67.910311 H 34.752025 C 33.081509,61.228248 26.399447,59.557732 26.399447,51.205155 26.399447,37.841031 34.752025,34.5 43.104602,34.5 51.457179,34.5 59.809758,37.841031 59.809758,51.205155 59.809758,59.557732 53.127695,61.228248 51.457179,67.910311 Z"
       fill="url(#rg-balloon-body)"
       style="fill:#aeaeae;fill-opacity:1;stroke-width:1.67051" />
    <path
       id="balloon-outline"
       d="M 39,61.089354 H 32.514792 C 31.21775,55.901187 26.029583,54.604145 26.029583,48.118937 26.029583,37.742603 32.514792,35.14852 39,35.14852 45.485208,35.14852 51.970417,37.742603 51.970417,48.118937 51.970417,54.604145 46.78225,55.901187 45.485208,61.089354 Z"
       fill="none"
       stroke="#000000"
       stroke-width="1.29704"
       style="stroke:none" />
    <path
       id="rope"
       d="M 33.811833,67.574562 32.514792,61.089354 M 44.188167,67.574562 45.485208,61.089354 M 39,35.14852 C 32.514792,35.14852 29.920708,41.633728 31.21775,48.118937 32.514792,54.604145 35.108875,54.604145 36.405917,67.574562 M 39,35.14852 C 45.485208,35.14852 48.079292,41.633728 46.78225,48.118937 45.485208,54.604145 42.891125,54.604145 41.594083,67.574562 M 26.029583,48.118937 C 26.029583,48.118937 28.623666,49.415978 31.21775,48.118937 31.21775,48.118937 39,53.307103 46.78225,48.118937 46.78225,48.118937 49.376334,49.415978 51.970417,48.118937"
       fill="none"
       stroke="#000000"
       stroke-width="1.29704"
       style="stroke:none" />
    <path
       id="basket"
       d="M 35.946276,71.095929 H 50.262929 L 48.473347,81.119022 H 37.735858 Z"
       stroke="#000000"
       stroke-width="1.72902"
       fill="#666666"
       style="fill:#787878;fill-opacity:1;stroke:none;stroke-width:1.72896;stroke-dasharray:none" />
  </g>
</svg>
